# xmcd
#
# Track frame offsets:
#	150
#	17340
#	37738
#	54720
#	76538
#	95385
#	114142
#	135868
#	153905
#	172328
#	191770
#	206690
#	230255
#	246863
#	269258
#	286545
#	304760
#	318053
#
# Disc length: 4494 seconds
#
# Revision: 1
# Processed by: cddbd v1.5PL3 Copyright (c) Steve Scherf et al.
# Submitted via: audiograbber 1.80
#
DISCID=d4118c12
DTITLE=Jazzy Jeff and Fresh Prince - Greatest Hits
DYEAR=1900
DGENRE=
TTITLE0=Boom! Shake The Room
TTITLE1=Summertime
TTITLE2=Men In Black
TTITLE3=Girls Ain't Nothing But Trouble
TTITLE4=Twinkle, Twinkle (I'm Not A Star)
TTITLE5=The Things That You Do
TTITLE6=I Think I Can Beat Mike Tyson
TTITLE7=Just Crusin'
TTITLE8=Ring My Bell
TTITLE9=I Wanna Rock
TTITLE10=Megamix (Clean Radio Edit)
TTITLE11=Parents Just Don't Understand
TTITLE12=I'm Looking For The One (To Be With Me)
TTITLE13=A Nightmare On My Street
TTITLE14=Can't Wait To Be With You (Ft. Christopher Williams)
TTITLE15=Brand New Funk
TTITLE16=The Fresh Prince Of Bel Air
TTITLE17=Lovely Daze (Candyhill Mix)
EXTD=
EXTT0=
EXTT1=
EXTT2=
EXTT3=
EXTT4=
EXTT5=
EXTT6=
EXTT7=
EXTT8=
EXTT9=
EXTT10=
EXTT11=
EXTT12=
EXTT13=
EXTT14=
EXTT15=
EXTT16=
EXTT17=
PLAYORDER=
